<?xml version="1.0" standalone="no"?>
<!DOCTYPE svg PUBLIC "-//W3C//DTD SVG 20010904//EN"
 "http://www.w3.org/TR/2001/REC-SVG-20010904/DTD/svg10.dtd">
<svg version="1.0" xmlns="http://www.w3.org/2000/svg"
 width="700.000000pt" height="700.000000pt" viewBox="0 0 700.000000 700.000000"
 preserveAspectRatio="xMidYMid meet">
<metadata>
Created by potrace 1.11, written by Peter Selinger 2001-2013
</metadata>
<g transform="translate(0.000000,700.000000) scale(0.100000,-0.100000)"
fill="#000000" stroke="none">
<path d="M1790 6289 c-25 -5 -79 -16 -120 -26 -41 -9 -79 -18 -85 -19 -5 -1
-41 -14 -80 -30 -428 -170 -716 -532 -790 -989 -17 -106 -12 -328 10 -430 96
-452 409 -806 839 -950 218 -73 494 -82 709 -24 23 6 49 12 57 14 56 11 220
88 304 142 264 169 453 423 536 717 23 85 25 93 35 160 l7 46 956 0 955 0
-446 -446 c-245 -245 -452 -460 -461 -478 -19 -40 -14 -101 12 -135 41 -56
131 -74 186 -38 11 8 296 290 632 626 l611 611 -610 610 c-335 335 -623 618
-641 628 -39 24 -109 21 -145 -6 -52 -38 -73 -122 -42 -176 9 -15 216 -228
460 -472 l444 -444 -955 0 -956 0 -7 46 c-12 84 -26 139 -57 229 -21 61 -74
176 -105 230 -35 59 -137 188 -192 244 -54 54 -183 156 -246 194 -111 67 -299
137 -410 154 -16 2 -37 7 -45 10 -25 9 -312 11 -360 2z m310 -280 c149 -21
310 -86 430 -175 205 -151 327 -338 390 -599 16 -65 21 -263 9 -340 -78 -494
-509 -851 -1002 -830 -120 5 -172 11 -199 26 -10 5 -18 7 -18 4 0 -2 -37 9
-81 25 -499 182 -759 712 -599 1222 90 290 343 541 630 629 150 45 296 58 440
38z"/>
<path d="M2755 3205 c-366 -57 -679 -260 -877 -570 -139 -216 -200 -440 -193
-710 4 -142 7 -162 36 -279 92 -364 363 -684 709 -836 120 -53 212 -79 351
-99 64 -10 321 -8 349 3 8 3 29 7 45 9 257 38 548 210 737 437 138 165 245
406 273 613 l6 47 956 0 956 0 -433 -432 c-238 -238 -446 -450 -461 -470 -47
-66 -25 -162 47 -197 38 -19 93 -21 124 -5 26 13 1250 1231 1250 1244 0 9
-1185 1195 -1227 1227 -53 41 -125 38 -176 -6 -44 -37 -56 -126 -24 -175 8
-11 214 -220 457 -463 l443 -443 -956 0 -956 0 -6 48 c-67 480 -445 905 -917
1028 -34 9 -74 18 -88 20 -14 2 -36 7 -50 10 -48 12 -296 11 -375 -1z m347
-281 c204 -33 388 -130 540 -285 130 -133 213 -288 259 -487 17 -70 19 -282 3
-360 -17 -90 -51 -196 -81 -257 -75 -148 -208 -301 -338 -387 -73 -48 -195
-108 -220 -108 -7 0 -16 -4 -19 -9 -6 -9 -13 -11 -146 -34 -79 -14 -274 -16
-325 -4 -142 35 -133 33 -181 50 -115 42 -233 118 -332 215 -156 151 -250 328
-286 538 -13 76 -14 280 -1 339 66 310 243 548 515 693 86 46 217 90 292 97
29 3 54 7 56 9 9 10 184 3 264 -10z"/>
</g>
</svg>
